<svg width="600" height="600" xmlns="http://www.w3.org/2000/svg">
 <g>
  <title>Layer 1</title>
  <path fill="#ffffaa" opacity="NaN" d="m299.96079,77.97389c23.16572,0.02929 45.29636,4.04035 66.25511,10.74127l-16.58734,28.68834l117.7432,0l-29.44333,-50.9916l-29.42086,-50.97635l-15.48737,26.86127c-29.0258,-10.61192 -60.31671,-16.55094 -93.03832,-16.55094c-150.61515,0 -272.69346,122.08608 -272.69346,272.70079c0,62.51005 21.26054,119.94311 56.64276,165.95868l41.46445,-31.83635c-28.61615,-37.18691 -45.82175,-83.59098 -45.9151,-134.10728c0.20842,-121.77 98.72541,-220.30112 220.48024,-220.48783l0.00002,0zm216.07945,54.57161l-41.46436,31.8516c28.60894,37.17275 45.81463,83.54758 45.89335,134.07888c-0.20844,121.769 -98.72541,220.28603 -220.48731,220.48669c-21.57692,-0.02789 -42.2194,-3.53635 -61.89829,-9.40377l15.60923,-26.99145l-117.74268,0l29.42155,50.96338l29.44278,51.03367l16.41479,-28.48619c27.83936,9.69156 57.63437,15.09844 88.75262,15.11251c150.63688,-0.02807 272.69425,-122.11426 272.72963,-272.72908c-0.03538,-62.50992 -21.31104,-119.92895 -56.67131,-165.91622l0,-0.00002z" id="svg_1" stroke="#000"/>
  <path fill="#ffffaa" stroke="#000" d="m389.09961,373.50022c-6.57231,7.30104 -34.87589,16.56141 -38.52641,16.56141l-31.026,0c-5.14923,0 -12.90401,1.0106 -16.55453,3.32741c0.41936,0.37124 0.83873,0.74248 1.24434,1.12059c2.80492,2.60555 9.36348,6.2767 15.16582,6.2767c2.7293,0 4.97048,-0.7906 6.87481,-2.43368c8.09852,-6.92293 12.3059,-7.73416 14.74646,-7.73416c2.89429,0 5.38297,1.32684 6.84731,3.65052c2.74992,4.30363 0.72873,9.93409 -1.33371,14.34772c-4.93611,10.4772 -21.02315,21.80001 -38.46453,21.80001c-0.01375,0 -0.01375,0 -0.0275,0c-2.43368,0 -4.81924,-0.22687 -7.10167,-0.68061l0,22.34999c0,5.10111 7.10167,17.41388 28.64731,17.41388s27.18985,-25.44366 27.18985,-29.82291l0,-31.01912c15.33082,-8.03665 31.01912,-12.40902 38.52641,-26.77737c7.06042,-13.50212 0.35749,-15.68143 -6.20795,-8.38039l-0.00001,0.00001zm-48.19238,32.49033c5.47234,-11.68029 -0.36436,-11.68029 -10.5872,-2.92179s-25.19616,0.72185 -30.30414,-4.02176c-5.10798,-4.73674 -10.21596,-8.38726 -19.3457,-8.0229c-9.12974,0.36436 -30.66163,-1.10684 -43.0844,-4.02176c-12.40902,-2.92179 -33.65217,-20.62442 -35.40525,-16.05267c-1.8287,4.74362 1.45058,8.02977 8.02977,16.05267c6.56544,8.03665 34.88964,19.09821 34.88964,19.09821s0,23.7387 0,33.5903c0,9.86535 20.4388,24.81805 31.01912,24.81805s18.61697,-7.30104 18.61697,-12.4159l0,-31.01912c17.52388,9.14349 40.69885,-3.39615 46.17119,-15.08332l0,-0.00001zm-10.99969,-26.06239c11.98966,0 21.71751,-9.72098 21.71751,-21.71064c0,-11.99654 -9.72785,-21.71751 -21.71751,-21.71751s-21.71063,9.72098 -21.71063,21.71751c0,11.98966 9.72097,21.71064 21.71063,21.71064zm-57.219,0c11.98966,0 21.71063,-9.72098 21.71063,-21.71064c0,-11.99654 -9.72097,-21.71751 -21.71063,-21.71751c-11.99653,0 -21.71751,9.72098 -21.71751,21.71751c0,11.98966 9.7141,21.71064 21.71751,21.71064z" id="svg_2"/>
  <text fill="#ffffaa" stroke="#000" x="142.24219" y="310.25" id="svg_3" font-size="127" font-family="sans-serif" text-anchor="start" xml:space="preserve" font-weight="normal" font-style="normal">3200</text>
 </g>

</svg>